<svg xmlns="http://www.w3.org/2000/svg" fill="none" viewBox="0 0 65 20"><path fill="#fff" d="M13.739 5.42q0 .058-.185.088-.154.03-.185-.059-.492-1.708-1.663-2.533-1.17-.825-3.08-.825H7.7q-.924 0-1.355.383-.432.383-.431 1.178v6.363h2.217q1.787 0 2.711-.59.955-.618.955-1.678 0-.06.185-.06t.185.06l-.03 2.68q0 .943.03 1.414l.03 1.561q.001.088-.184.088t-.185-.088q0-1.178-.986-1.856-.954-.706-2.741-.707H5.915v6.304q0 .913.246 1.355t.924.618 2.126.177q.06 0 .061.177 0 .177-.061.177-1.264 0-1.972-.03l-3.142-.03-2.31.03q-.616.03-1.695.03-.092 0-.092-.177t.092-.177q1.08 0 1.571-.147.494-.147.647-.56.186-.441.185-1.325V3.623q0-.884-.154-1.296t-.616-.56q-.462-.176-1.417-.176-.092 0-.092-.177t.092-.177h13.061q.308 0 .308.265zM42.565 8.454q.77 0 .77.913 0 .736-.43 1.443a3.3 3.3 0 0 1-1.11 1.12 2.8 2.8 0 0 1-1.51.441q-.862 0-2.217-.618-.555 4.035-2.834 6.156Q32.984 20 29.627 20q-2.094 0-3.758-.943a7.1 7.1 0 0 1-2.557-2.562 6.74 6.74 0 0 1-.924-3.446q0-.795.185-1.591A6.9 6.9 0 0 1 23.99 8.63a7.55 7.55 0 0 1 2.464-1.973q1.418-.707 2.865-.707 1.54 0 2.526.825 1.848-1.974 1.848-3.447 0-.559-.184-.854a2 2 0 0 0-.524-.589 3 3 0 0 1-.37-.412q-.123-.177-.123-.501 0-.442.277-.707A.98.98 0 0 1 33.478 0q.677 0 1.109.59.43.588.431 1.56 0 1.65-1.294 3.358a19.3 19.3 0 0 1-3.111 3.21q-1.817 1.474-4.56 3.447l-1.786 1.325a6.6 6.6 0 0 0 1.263 2.828 6.9 6.9 0 0 0 2.28 1.885 6.5 6.5 0 0 0 2.834.648q2.804 0 4.651-1.885 1.88-1.885 2.28-5.42l-.585-.294q-1.294-.648-2.064-.943-.771-.324-1.479-.324-.432 0-.709.177-.246.177-.246.442 0 .353.247.825.246.53.246.765a.8.8 0 0 1-.185.501q-.185.206-.554.206a.93.93 0 0 1-.617-.206q-.215-.235-.215-.736 0-.766.493-1.473.523-.706 1.324-1.12a3.6 3.6 0 0 1 1.695-.441q.77 0 1.57.324.833.294 2.034.883.986.502 1.694.796.709.265 1.294.265.4 0 .647-.147.277-.177.277-.413 0-.264-.308-.677a3 3 0 0 1-.277-.413.9.9 0 0 1-.093-.412q0-.678.801-.677m-18.298 2.061a10 10 0 0 0-.154 1.591q0 .324.062.913.832-.648 1.725-1.296 2.803-2.061 4.374-3.417-.77-1.56-2.526-1.56-1.201 0-2.156 1.089-.924 1.06-1.325 2.68M59.363 9.308q2.587.294 4.097 1.65Q65 12.311 65 14.314a4.5 4.5 0 0 1-.924 2.769q-.924 1.238-2.557 1.973-1.632.708-3.635.707-.863 0-1.971-.088-.431-.03-1.079-.059-.615-.03-1.386-.03l-2.248.03q-.617.03-1.664.03-.093 0-.092-.177 0-.177.092-.177.893 0 1.355-.147.463-.176.647-.59.216-.441.216-1.295V3.623q0-1.237-.431-1.62-.432-.412-1.756-.412-.062 0-.062-.177t.062-.177l1.633.03a57 57 0 0 0 2.248.058q.862 0 1.787-.088.307-.03.924-.059.616-.03 1.078-.03 2.803 0 4.344.973 1.54.972 1.54 2.827 0 1.414-.986 2.563-.954 1.149-2.772 1.797m-2.588-7.511q-.893 0-1.232.412-.339.382-.339 1.473v5.596l1.232.03q1.602 0 2.465-1.149t.862-2.945q0-1.68-.77-2.534-.77-.883-2.218-.883m.585 17.231q4.035 0 4.036-4.006 0-2.268-1.14-3.593t-3.45-1.326q-.894 0-1.602.059v7.099q0 .973.4 1.384.401.383 1.756.383"/></svg>